<?xml version="1.0" encoding="UTF-8" standalone="no"?>
<!-- Created with Inkscape (http://www.inkscape.org/) -->

<svg
   xmlns:dc="http://purl.org/dc/elements/1.1/"
   xmlns:cc="http://creativecommons.org/ns#"
   xmlns:rdf="http://www.w3.org/1999/02/22-rdf-syntax-ns#"
   xmlns:svg="http://www.w3.org/2000/svg"
   xmlns="http://www.w3.org/2000/svg"
   xmlns:sodipodi="http://sodipodi.sourceforge.net/DTD/sodipodi-0.dtd"
   xmlns:inkscape="http://www.inkscape.org/namespaces/inkscape"
   width="100"
   height="100"
   id="svg2"
   version="1.1"
   inkscape:version="0.91 r13725"
   sodipodi:docname="openstreetmap.svg"
   viewBox="0 0 99.999999 100">
  <defs
     id="defs4" />
  <sodipodi:namedview
     id="base"
     pagecolor="#ffffff"
     bordercolor="#666666"
     borderopacity="1.0"
     inkscape:pageopacity="0.0"
     inkscape:pageshadow="2"
     inkscape:zoom="3.959798"
     inkscape:cx="5.5456408"
     inkscape:cy="15.132264"
     inkscape:document-units="px"
     inkscape:current-layer="layer1"
     showgrid="false"
     inkscape:window-width="1920"
     inkscape:window-height="1002"
     inkscape:window-x="0"
     inkscape:window-y="34"
     inkscape:window-maximized="1"
     fit-margin-top="0"
     fit-margin-left="0"
     fit-margin-right="0"
     fit-margin-bottom="0" />
  <metadata
     id="metadata7">
    <rdf:RDF>
      <cc:Work
         rdf:about="">
        <dc:format>image/svg+xml</dc:format>
        <dc:type
           rdf:resource="http://purl.org/dc/dcmitype/StillImage" />
        <dc:title></dc:title>
      </cc:Work>
    </rdf:RDF>
  </metadata>
  <g
     inkscape:label="Layer 1"
     inkscape:groupmode="layer"
     id="layer1"
     transform="translate(-219.16729,-402.99847)">
    <g
       transform="translate(18.16729,-55.84553)"
       id="logo-osm"
       style="fill:#ffffff;fill-opacity:1">
      <path
         style="fill:#ffffff;fill-opacity:1"
         inkscape:connector-curvature="0"
         id="logo-osm-shape"
         d="m 204,465 7.812,20.5 -7.812,20.5 7.812,20.531 -7.812,20.5 4.812,1.844 26.032,-26.063 4.687,0.719 5.688,-5.687 c -3.349,-3.88 -5.88,-8.512 -7.25,-13.625 l 2.687,-2.157 c -0.457,-2.123 -0.718,-4.336 -0.718,-6.593 0,-11.278 6.012,-21.192 15,-26.688 L 245.031,465 224.5,472.812 204,465 Z m 67.094,4.312 c -14.36,0 -26,11.641 -26,26 0,14.36 11.64,26 26,26 14.359,0 26,-11.64 26,-26 0,-14.359 -11.641,-26 -26,-26 z m 20.062,50.157 c -5.421,4.518 -12.38,7.25 -19.968,7.25 -2.258,0 -4.471,-0.261 -6.594,-0.719 l -2.156,2.656 c -4.856,-1.301 -9.307,-3.589 -13.063,-6.687 l -5.875,5.875 0.719,4.344 -21.813,21.843 2.094,0.813 20.531,-7.813 20.5,7.813 20.5,-7.813 7.813,-20.5 -2.688,-7.062 z" />
    </g>
  </g>
</svg>
